#define icone_width 16
#define icone_height 16
static unsigned char icone_bits[] = {
   0x00, 0x00, 0x00, 0x00, 0x00, 0x00, 0xe0, 0xff, 0x30, 0xc0, 0xa8, 0xaa,
   0x28, 0xa0, 0xa4, 0x94, 0x24, 0x90, 0xa2, 0x8a, 0x22, 0x88, 0xff, 0x87,
   0x20, 0x80, 0xe0, 0xff, 0x00, 0x00, 0x00, 0x00 };
